<svg width="16" height="14" viewBox="0 0 16 14" fill="none" xmlns="http://www.w3.org/2000/svg">
<path d="M15.9974 13.2174L15.1388 6.51667C15.122 6.36515 15.0041 6.21362 14.8526 6.16311L13.4047 5.64119C13.27 5.89373 13.1353 6.16311 13.0006 6.41565L14.297 6.88706L15.0378 12.6618L11.9568 11.6685L11.7379 8.26762C11.5864 8.33497 11.418 8.36864 11.2328 8.36864C11.115 8.36864 10.9803 8.3518 10.8793 8.31813L11.0981 11.6853L8.40436 12.6618V6.85339L9.48187 6.41565L9.07781 5.64119L8.0003 6.09577L5.03715 4.86673C4.93613 4.83306 4.81828 4.81622 4.71726 4.8499L1.14801 6.16311C0.996486 6.21362 0.895469 6.34831 0.861797 6.51667L0.00315677 13.2174C-0.0136793 13.369 0.036829 13.5036 0.154682 13.6047C0.272534 13.7057 0.424059 13.7225 0.558748 13.6888L4.41421 12.443L7.84877 13.6888C7.94979 13.7225 8.05081 13.7225 8.13499 13.6888L11.5695 12.443L15.425 13.6888C15.4755 13.7057 15.5092 13.7057 15.5597 13.7057C15.6607 13.7057 15.7617 13.672 15.8291 13.6047C15.9469 13.5036 16.0143 13.369 15.9974 13.2174ZM4.02698 11.6685L0.945978 12.6618L1.68677 6.88706L4.39738 5.91057L4.02698 11.6685ZM7.56256 12.6618L4.86879 11.6853L5.23918 5.89373L7.56256 6.85339V12.6618Z" fill="black"/>
<path d="M10.9297 7.30819C11.0644 7.57757 11.4516 7.57757 11.5863 7.30819C11.5863 7.30819 13.1184 4.31137 13.472 3.60425C13.8255 2.89713 13.8423 2.10584 13.472 1.36505C12.8659 0.136016 11.3674 -0.35223 10.1384 0.270705C8.90937 0.89364 8.43796 2.42572 9.04406 3.60425C9.65016 4.78278 10.9297 7.30819 10.9297 7.30819ZM11.2664 1.34821C11.923 1.34821 12.445 1.87013 12.445 2.52674C12.445 3.18335 11.923 3.70527 11.2664 3.70527C10.6098 3.70527 10.0879 3.18335 10.0879 2.52674C10.0879 1.88697 10.6098 1.34821 11.2664 1.34821Z" fill="black"/>
</svg>
